<?xml version="1.0" encoding="UTF-8" standalone="no"?>
<svg
   xmlns:dc="http://purl.org/dc/elements/1.1/"
   xmlns:cc="http://creativecommons.org/ns#"
   xmlns:rdf="http://www.w3.org/1999/02/22-rdf-syntax-ns#"
   xmlns:svg="http://www.w3.org/2000/svg"
   xmlns="http://www.w3.org/2000/svg"
   xmlns:sodipodi="http://sodipodi.sourceforge.net/DTD/sodipodi-0.dtd"
   xmlns:inkscape="http://www.inkscape.org/namespaces/inkscape"
   id="Layer_1"
   enable-background="new 0 0 512 512"
   height="512"
   viewBox="0 0 512 512"
   width="512"
   version="1.1"
   sodipodi:docname="boy.svg"
   inkscape:version="1.0.2-2 (e86c870879, 2021-01-15)">
  <metadata
     id="metadata128">
    <rdf:RDF>
      <cc:Work
         rdf:about="">
        <dc:format>image/svg+xml</dc:format>
        <dc:type
           rdf:resource="http://purl.org/dc/dcmitype/StillImage" />
      </cc:Work>
    </rdf:RDF>
  </metadata>
  <defs
     id="defs126" />
  <sodipodi:namedview
     pagecolor="#ffffff"
     bordercolor="#666666"
     borderopacity="1"
     objecttolerance="10"
     gridtolerance="10"
     guidetolerance="10"
     inkscape:pageopacity="0"
     inkscape:pageshadow="2"
     inkscape:window-width="1920"
     inkscape:window-height="1017"
     id="namedview124"
     showgrid="false"
     inkscape:zoom="0.83007813"
     inkscape:cx="-115.29695"
     inkscape:cy="199.67427"
     inkscape:window-x="-8"
     inkscape:window-y="-8"
     inkscape:window-maximized="1"
     inkscape:current-layer="Layer_1" />
  <g
     id="g121">
    <g
       id="g95">
      <g
         id="g93">
        <g
           id="XMLID_3901_">
          <g
             id="XMLID_3902_">
            <g
               id="XMLID_3903_">
              <g
                 id="XMLID_3904_">
                <g
                   id="XMLID_3905_">
                  <g
                     id="XMLID_3906_">
                    <g
                       id="XMLID_3907_">
                      <g
                         id="XMLID_3908_">
                        <g
                           id="XMLID_3909_">
                          <g
                             id="XMLID_3910_">
                            <g
                               id="XMLID_3911_">
                              <g
                                 id="XMLID_3912_">
                                <g
                                   id="XMLID_3913_">
                                <g
                                   id="XMLID_3914_">
                                <g
                                   id="XMLID_3915_">
                                <circle
                                   cx="256"
                                   cy="256"
                                   fill="#4f4359"
                                   r="256"
                                   id="circle76"
                                   style="fill:#aeaeae;fill-opacity:1" />
                                </g>
                                </g>
                                </g>
                              </g>
                            </g>
                          </g>
                        </g>
                      </g>
                    </g>
                  </g>
                </g>
              </g>
            </g>
          </g>
        </g>
      </g>
    </g>
    <path
       d="m512 256c0-6.189-.233-12.322-.664-18.401l-123.946-123.945-299.697 213.517 65.068 65.067c.826 1.068 6.978 7.384 7.881 8.369 1.884 2.207 2.39 2.838 2.415 2.906l108.032 108.032c134.359-7.811 240.911-119.227 240.911-255.545z"
       fill="#372a44"
       id="path97"
       style="fill:#434343;fill-opacity:1" />
    <g
       id="g119">
      <path
         d="m399.576 236.257c-2.528 0-5.003.252-7.415.713-19.074-61.103-72.828-105.133-136.164-105.133s-117.09 44.03-136.164 105.133c-2.412-.46-4.887-.713-7.415-.713-24.372 0-44.13 22.262-44.13 49.724s19.758 49.724 44.13 49.724c2.528 0 5.003-.253 7.415-.713 19.074 61.103 72.828 105.134 136.164 105.134s117.09-44.03 136.164-105.134c2.412.46 4.887.713 7.415.713 24.373 0 44.13-22.262 44.13-49.724.001-27.462-19.757-49.724-44.13-49.724z"
         fill="#ffe1cc"
         id="path99"
         style="fill:#ffe6d4;fill-opacity:1" />
      <path
         d="m443.711 285.983c0 27.458-19.764 49.725-44.136 49.725-2.531 0-5.006-.26-7.416-.714-19.069 61.1-72.827 105.134-136.161 105.134v-308.291c63.334 0 117.093 44.025 136.161 105.134 2.41-.464 4.886-.714 7.416-.714 3.968 0 7.806.593 11.467 1.697 18.81 5.683 32.669 25.03 32.669 48.029z"
         fill="#ffcfae"
         id="path101"
         style="fill:#ffe1cc;fill-opacity:1" />
      <g
         id="g107">
        <path
           d="m194.174 341.518-1.958-.738c29.477 71.047 98.084 71.047 127.561 0l-1.957.738c-40.591 15.307-83.055 15.307-123.646 0z"
           fill="#ff6643"
           id="path103" />
        <path
           d="m319.776 340.78c-14.736 35.524-39.257 53.286-63.778 53.286v-41.064c20.762 0 41.524-3.833 61.825-11.484z"
           fill="#ff3b3b"
           id="path105"
           style="fill:#ff6643;fill-opacity:1" />
      </g>
      <g
         id="g113">
        <circle
           cx="210.028"
           cy="275.461"
           fill="#7f6866"
           r="21.174"
           id="circle109"
           style="fill:#000000;fill-opacity:1" />
        <circle
           cx="301.968"
           cy="275.461"
           fill="#634c4c"
           r="21.174"
           id="circle111"
           style="fill:#000000;fill-opacity:1" />
      </g>
      <path
         d="m100.957 178.888v102.887h42.235l20.012-100.282s93.998 57.618 194.955 34.136l14.575 66.145h38.304s0-42.19 0-98.929c0-56.738-32.988-112.157-155.041-112.157-54.758.001-155.04 22.432-155.04 108.2z"
         fill="#c48458"
         id="path115"
         style="fill:#352b24;fill-opacity:1" />
      <path
         d="m411.043 182.842v55.112 43.82h-38.305l-14.582-66.143c-36.302 8.445-71.705 6.396-102.158.315v-145.255c122.052 0 155.045 55.417 155.045 112.151z"
         fill="#a36d48"
         id="path117"
         style="fill:#352b24;fill-opacity:1" />
    </g>
  </g>
  <path
     style="fill:#c6bfb9;stroke:#c6bfb9;stroke-width:1px;stroke-linecap:butt;stroke-linejoin:miter;stroke-opacity:1;fill-opacity:1"
     d="m 286.72,71.68 v 132.51765 l 57.22353,-26.50353 55.90076,29.23986 10e-6,-75.53523"
     id="path136"
     sodipodi:nodetypes="ccccc" />
  <path
     style="fill:#c6bfb9;stroke:#c6bfb9;stroke-width:1px;stroke-linecap:butt;stroke-linejoin:miter;stroke-opacity:1;fill-opacity:1"
     d="m 286.72,71.68 c 0,0 83.18978,2.279853 113.1243,59.71875"
     id="path969" />
</svg>
