<svg id="_x31__x2C_5" enable-background="new 0 0 24 24" height="512" viewBox="0 0 24 24" width="512" xmlns="http://www.w3.org/2000/svg"><path d="m10.25 14.5h-1c-.414 0-.75-.336-.75-.75s.336-.75.75-.75h1c.689 0 1.25-.561 1.25-1.25v-5c0-.414.336-.75.75-.75s.75.336.75.75v5c0 1.517-1.233 2.75-2.75 2.75z"/><path d="m11.5 19.75c-1.696 0-3.285-.908-4.146-2.369-.21-.357-.091-.816.266-1.027.355-.212.816-.092 1.027.265.593 1.006 1.687 1.631 2.854 1.631s2.261-.625 2.854-1.631c.211-.357.67-.478 1.027-.265.356.21.476.67.266 1.027-.863 1.461-2.452 2.369-4.148 2.369z"/><path d="m23.25 8.348c-.414 0-.75-.336-.75-.75v-4.848c0-.689-.561-1.25-1.25-1.25h-4.848c-.414 0-.75-.336-.75-.75s.336-.75.75-.75h4.848c1.517 0 2.75 1.234 2.75 2.75v4.848c0 .414-.336.75-.75.75z"/><path d="m.75 8.348c-.414 0-.75-.336-.75-.75v-4.848c0-1.516 1.233-2.75 2.75-2.75h4.848c.414 0 .75.336.75.75s-.336.75-.75.75h-4.848c-.689 0-1.25.561-1.25 1.25v4.848c0 .414-.336.75-.75.75z"/><path d="m21.25 24h-4.848c-.414 0-.75-.336-.75-.75s.336-.75.75-.75h4.848c.689 0 1.25-.561 1.25-1.25v-4.848c0-.414.336-.75.75-.75s.75.336.75.75v4.848c0 1.516-1.233 2.75-2.75 2.75z"/><path d="m7.598 24h-4.848c-1.517 0-2.75-1.234-2.75-2.75v-4.848c0-.414.336-.75.75-.75s.75.336.75.75v4.848c0 .689.561 1.25 1.25 1.25h4.848c.414 0 .75.336.75.75s-.336.75-.75.75z"/><path d="m5.75 6c-.414 0-.75.336-.75.75v1.5c0 .414.336.75.75.75s.75-.336.75-.75v-1.5c0-.414-.336-.75-.75-.75z"/><path d="m17.25 6c-.414 0-.75.336-.75.75v1.5c0 .414.336.75.75.75s.75-.336.75-.75v-1.5c0-.414-.336-.75-.75-.75z"/></svg>