<?xml version="1.0" encoding="UTF-8" standalone="no"?>
<svg
   xmlns:dc="http://purl.org/dc/elements/1.1/"
   xmlns:cc="http://creativecommons.org/ns#"
   xmlns:rdf="http://www.w3.org/1999/02/22-rdf-syntax-ns#"
   xmlns:svg="http://www.w3.org/2000/svg"
   xmlns="http://www.w3.org/2000/svg"
   xmlns:sodipodi="http://sodipodi.sourceforge.net/DTD/sodipodi-0.dtd"
   xmlns:inkscape="http://www.inkscape.org/namespaces/inkscape"
   version="1.1"
   x="0px"
   y="0px"
   viewBox="0 0 128 160"
   style="enable-background:new 0 0 128 128;"
   xml:space="preserve"
   id="svg929"
   sodipodi:docname="noun_bookmark_2484342.svg"
   inkscape:version="1.0.2-2 (e86c870879, 2021-01-15)"><metadata
     id="metadata935"><rdf:RDF><cc:Work
         rdf:about=""><dc:format>image/svg+xml</dc:format><dc:type
           rdf:resource="http://purl.org/dc/dcmitype/StillImage" /></cc:Work></rdf:RDF></metadata><defs
     id="defs933" /><sodipodi:namedview
     pagecolor="#ffffff"
     bordercolor="#666666"
     borderopacity="1"
     objecttolerance="10"
     gridtolerance="10"
     guidetolerance="10"
     inkscape:pageopacity="0"
     inkscape:pageshadow="2"
     inkscape:window-width="1920"
     inkscape:window-height="1017"
     id="namedview931"
     showgrid="false"
     inkscape:zoom="5.3125"
     inkscape:cx="64"
     inkscape:cy="57.411765"
     inkscape:window-x="-8"
     inkscape:window-y="-8"
     inkscape:window-maximized="1"
     inkscape:current-layer="svg929" /><g
     id="g923"><path
       d="M109.9,24h-38v8.6h32.7v79.7c0,2.6-2.1,4.6-4.6,4.6H39.7l0-92.9H28.8c-1.3,0-2.4-0.6-3.2-1.5c-0.5-0.6-0.8-1.3-0.9-2.1   c0-0.2,0-0.4,0-0.6v-4c0-0.2,0-0.5,0.1-0.7c0.3-1.5,1.7-2.7,3.3-2.7h81.8c1.4,0,2.7,0.9,3.1,2.2c0.1,0.1,0.1,0,0.1,0   c-0.6-6.7-6.3-12-13.2-12H28.1c-7.3,0-13.3,5.9-13.3,13.2v96.5c0,6.2,4.3,11.4,10,12.8c1.1,0.3,2.2,0.4,3.3,0.4H100   c7.3,0,13.2-6,13.2-13.3V26.9C113,25.2,111.6,24,109.9,24z"
       id="path919" /><polygon
       points="55.7,48.4 66.8,53.5 66.8,24 44.6,24 44.6,53.5  "
       id="polygon921" /></g><path
     style="fill:#7c87a6;stroke:#c6bfb9;stroke-width:0.188235"
     d="m 25.882353,125.23547 c -0.875789,-0.14511 -2.879991,-0.83421 -3.842572,-1.32119 -2.402504,-1.21544 -4.561154,-3.44011 -5.776382,-5.95304 -1.41887,-2.93405 -1.314632,1.58892 -1.256626,-54.525946 l 0.05205,-50.352941 0.504359,-1.380692 c 0.760679,-2.0823712 1.590299,-3.348602 3.354464,-5.1198434 1.282445,-1.2875895 1.917555,-1.7616625 3.2,-2.3886181 3.261789,-1.5946079 -0.73816,-1.4463768 40.847059,-1.5137208 24.248576,-0.039269 37.487235,0.00579 38.437035,0.1308164 3.10288,0.4084535 5.61399,1.6679829 7.87242,3.9486596 1.50624,1.5210829 2.69783,3.5106233 3.27219,5.4634453 0.4438,1.508908 0.39503,1.640592 -0.36157,0.97629 -0.36425,-0.319817 -0.89366,-0.646239 -1.17647,-0.725382 -0.2828,-0.07914 -19.290429,-0.143896 -42.239163,-0.143896 H 27.044179 l -0.807178,0.567311 c -1.456515,1.023688 -1.578177,1.415287 -1.578177,5.079748 0,3.479516 0.07274,3.78611 1.15508,4.868449 1.155855,1.155856 1.118064,1.149937 7.739037,1.211797 l 6.070588,0.05672 v 46.390342 46.390341 h 30.782517 c 33.989564,0 31.478474,0.0908 32.810454,-1.18601 0.34554,-0.33123 0.81142,-0.94105 1.03529,-1.35517 l 0.40703,-0.75294 0.0492,-40.517644 0.0492,-40.517647 H 88.378584 72 v -4.235294 -4.235294 l 19.247059,0.0041 c 18.363011,0.004 19.282501,0.02023 20.018621,0.354535 0.42436,0.192721 0.97495,0.635567 1.22353,0.984102 l 0.45197,0.633692 0.0482,43.918513 c 0.0537,48.928977 0.15713,45.012567 -1.26559,47.940307 -1.37141,2.82215 -3.63533,5.02053 -6.51475,6.32612 -2.57047,1.1655 -0.24672,1.10473 -41.303198,1.08027 -20.654117,-0.0123 -37.764706,-0.0575 -38.023529,-0.10033 z"
     id="path1498" /><path
     style="fill:#7c87a6;stroke:#c6bfb9;stroke-width:0.188235"
     d="M 44.705882,38.702492 V 24.094118 h 11.011765 11.011765 v 14.588235 c 0,8.023529 -0.03293,14.588235 -0.07318,14.588235 -0.04025,0 -2.467029,-1.101176 -5.39284,-2.447059 -2.92581,-1.345882 -5.424298,-2.447058 -5.552195,-2.447058 -0.127897,0 -2.550531,1.066912 -5.383632,2.370913 -2.833101,1.304004 -5.256975,2.414244 -5.386387,2.467199 -0.187041,0.07654 -0.235294,-2.89953 -0.235294,-14.512091 z"
     id="path1500" /><path
     style="fill:#ffffff;fill-opacity:1;stroke:#c6bfb9;stroke-width:0.188235"
     d="m 24.796143,124.98539 c -4.679247,-1.22603 -8.495463,-5.12261 -9.52778,-9.72843 -0.275311,-1.22834 -0.3032,-6.04303 -0.298755,-51.576472 l 0.0049,-50.221664 0.45661,-1.377446 c 0.738785,-2.2286772 1.687313,-3.7327224 3.47617,-5.5120314 1.292996,-1.2860952 1.954716,-1.7790763 3.218966,-2.3981291 3.218065,-1.5757577 -0.702782,-1.4321885 40.83845,-1.4953761 24.589425,-0.037403 37.481146,0.00864 38.458686,0.1373675 3.13389,0.412672 5.42978,1.558024 7.75578,3.869144 1.61208,1.6017587 2.76843,3.5043151 3.36718,5.5400471 0.44313,1.50663 0.39502,1.588276 -0.52302,0.887524 l -0.82373,-0.628766 -3.07685,-0.135217 c -1.69227,-0.07437 -20.682594,-0.074 -42.200721,8.28e-4 l -39.123868,0.136049 -0.708429,0.513184 c -1.201848,0.870614 -1.418213,1.566388 -1.47141,4.731682 -0.05381,3.201767 0.134715,3.987806 1.224156,5.104007 0.748491,0.766877 2.189266,1.317621 3.289758,1.257531 0.334916,-0.0183 2.832468,-0.02467 5.550115,-0.01417 l 4.941176,0.01907 v 46.406034 46.406034 l 31.011765,-0.0531 c 34.652298,-0.0593 31.505848,0.0745 32.795608,-1.39449 1.33913,-1.52518 1.22192,2.3545 1.28302,-42.470361 l 0.0551,-40.423529 H 88.384506 72 v -4.235294 -4.235294 h 19.254232 19.254228 l 0.83837,0.423529 c 0.4611,0.232941 1.02964,0.711351 1.26342,1.06313 l 0.42504,0.639603 v 43.894993 c 0,43.071083 -0.007,43.922233 -0.3712,45.346363 -0.96141,3.75911 -3.46773,6.80915 -7.06409,8.59659 -2.79578,1.38955 0.0785,1.30063 -41.788235,1.29274 -36.404237,-0.007 -37.692239,-0.0189 -39.015622,-0.36568 z"
     id="path2103" /><path
     style="fill:#ffffff;fill-opacity:1;stroke:#c6bfb9;stroke-width:0.188235"
     d="M 44.705882,38.682353 V 24.094118 h 11.011765 11.011765 v 14.608374 c 0,11.67428 -0.04766,14.590088 -0.237271,14.517325 -0.1305,-0.05008 -2.576081,-1.160316 -5.434627,-2.467198 -2.858546,-1.306882 -5.281609,-2.376148 -5.384584,-2.376148 -0.102976,0 -0.9821,0.372958 -1.953609,0.828798 -3.036566,1.424777 -8.834179,4.065319 -8.925875,4.065319 -0.04816,0 -0.08756,-6.564706 -0.08756,-14.588235 z"
     id="path2105" /></svg>
