<?xml version="1.0" encoding="UTF-8" standalone="no"?>
<svg
   xmlns:dc="http://purl.org/dc/elements/1.1/"
   xmlns:cc="http://creativecommons.org/ns#"
   xmlns:rdf="http://www.w3.org/1999/02/22-rdf-syntax-ns#"
   xmlns:svg="http://www.w3.org/2000/svg"
   xmlns="http://www.w3.org/2000/svg"
   xmlns:sodipodi="http://sodipodi.sourceforge.net/DTD/sodipodi-0.dtd"
   xmlns:inkscape="http://www.inkscape.org/namespaces/inkscape"
   version="1.1"
   x="0px"
   y="0px"
   viewBox="0 0 100 125"
   style="enable-background:new 0 0 100 100;"
   xml:space="preserve"
   id="svg873"
   sodipodi:docname="noun_Login_3407301.svg"
   inkscape:version="1.0.2-2 (e86c870879, 2021-01-15)"><metadata
     id="metadata879"><rdf:RDF><cc:Work
         rdf:about=""><dc:format>image/svg+xml</dc:format><dc:type
           rdf:resource="http://purl.org/dc/dcmitype/StillImage" /></cc:Work></rdf:RDF></metadata><defs
     id="defs877" /><sodipodi:namedview
     pagecolor="#ffffff"
     bordercolor="#666666"
     borderopacity="1"
     objecttolerance="10"
     gridtolerance="10"
     guidetolerance="10"
     inkscape:pageopacity="0"
     inkscape:pageshadow="2"
     inkscape:window-width="1920"
     inkscape:window-height="1017"
     id="namedview875"
     showgrid="false"
     inkscape:zoom="4.7517576"
     inkscape:cx="21.646095"
     inkscape:cy="39.588465"
     inkscape:window-x="-8"
     inkscape:window-y="-8"
     inkscape:window-maximized="1"
     inkscape:current-layer="svg873"
     inkscape:document-rotation="0" /><path
     d="m 49.1,65.6 h 33.7 c 1.2,0 2.3,0.3 3.3,0.7 V 59 C 86.1,48.8 77.8,40.5 67.6,40.5 H 47.9 c -8.6,0 -15.8,5.8 -17.9,13.8 7.8,0.6 14.9,4.8 19.1,11.3 z"
     id="path857" /><circle
     cx="57.700001"
     cy="18.9"
     r="16.4"
     id="circle859" /><path
     d="M 89.6,78.5 83.5,72.8 C 83.3,72.6 83,72.5 82.7,72.5 H 47.6 C 46.1,72.5 44.7,71.7 44,70.4 40.9,64.9 35,61.2 28.2,61.1 18.6,61 10.4,68.7 9.9,78.3 c -0.6,10.5 7.8,19.2 18.2,19.2 6.8,0 12.7,-3.7 15.9,-9.3 0.7,-1.3 2.1,-2 3.6,-2 h 6.9 c 0.3,0 0.6,-0.1 0.8,-0.3 l 3.4,-3.4 c 0.5,-0.5 1.2,-0.5 1.6,0 l 3.4,3.4 c 0.2,0.2 0.5,0.3 0.8,0.3 h 3.3 c 0.3,0 0.6,-0.1 0.8,-0.3 L 72,82.5 c 0.5,-0.5 1.2,-0.5 1.6,0 l 3.4,3.4 c 0.2,0.2 0.5,0.3 0.8,0.3 h 4.7 c 0.3,0 0.6,-0.1 0.8,-0.3 l 6.1,-5.7 c 0.7,-0.5 0.7,-1.3 0.2,-1.7 z m -67,6.3 c -3,0 -5.5,-2.5 -5.5,-5.5 0,-3 2.5,-5.5 5.5,-5.5 3,0 5.5,2.5 5.5,5.5 0,3 -2.5,5.5 -5.5,5.5 z"
     id="path861" /><path
     style="fill:#7c87a6;stroke:#c6bfb9;stroke-width:0.14881;opacity:1;fill-opacity:1"
     d="m 55.803571,35.105339 c -3.585185,-0.426457 -6.984848,-2.098845 -9.615878,-4.730317 -3.139742,-3.140268 -4.744241,-7.021515 -4.744241,-11.476212 0,-4.454699 1.604499,-8.335945 4.744241,-11.4762131 4.238599,-4.239309 10.248969,-5.82957 15.91314,-4.2103966 4.955395,1.4165609 8.859417,4.9762135 10.798557,9.8460277 0.773239,1.941859 1.051652,3.48808 1.051652,5.840582 0,2.352501 -0.278413,3.898721 -1.051652,5.840581 -2.284441,5.736975 -7.293701,9.618188 -13.37558,10.363502 -1.494742,0.183177 -2.196978,0.183638 -3.720239,0.0024 z"
     id="path893" /><path
     style="opacity:1;fill:#000000;fill-opacity:1;stroke:#c6bfb9;stroke-width:0.14881"
     d="M 85.119048,65.854607 C 84.243045,65.556713 83.894574,65.550199 66.659143,65.509512 l -17.567049,-0.04147 -0.270381,-0.457719 c -0.43414,-0.73494 -2.338353,-2.948198 -3.450838,-4.010889 -3.402506,-3.250219 -7.979052,-5.551079 -12.83523,-6.452915 -0.684265,-0.127074 -1.504577,-0.231044 -1.822917,-0.231044 -0.31834,0 -0.578799,-0.05523 -0.578799,-0.122745 0,-0.3748 0.817957,-2.426494 1.473367,-3.69567 2.628727,-5.090422 7.510719,-8.655284 13.215628,-9.650137 1.920988,-0.334992 23.950484,-0.32782 25.878658,0.0084 6.212494,1.083368 11.601083,5.43408 13.95154,11.264383 1.143012,2.835239 1.478204,5.403468 1.404144,10.75849 l -0.04536,3.280008 z"
     id="path895" /><path
     style="opacity:1;fill:#7c87a6;fill-opacity:1;stroke:#c6bfb9;stroke-width:0.14881"
     d="M 85.454494,65.98289 C 84.1599,65.534488 82.456004,65.490933 65.922619,65.483615 l -16.815476,-0.0074 -0.223214,-0.32958 c -3.684959,-5.440896 -9.515737,-9.247348 -16.116186,-10.52098 -0.883991,-0.170576 -1.838232,-0.310138 -2.120535,-0.310138 -0.282304,0 -0.513279,-0.05523 -0.513279,-0.122745 0,-0.334025 0.789627,-2.37636 1.343332,-3.474466 2.229663,-4.421862 6.171726,-7.791001 10.833611,-9.259097 2.615961,-0.823805 2.807624,-0.834168 15.427223,-0.834168 12.773859,0 12.93763,0.0095 15.607845,0.904091 5.950587,1.99363 10.508431,6.86227 12.077416,12.900966 0.506065,1.947741 0.682995,4.273647 0.632,8.308218 l -0.04345,3.437682 z"
     id="path897" /><path
     style="opacity:1;fill:#7c87a6;fill-opacity:1;stroke:#c6bfb9;stroke-width:0.14881"
     d="M 26.14192,97.314749 C 20.085016,96.557167 14.979203,93.098057 12.065332,87.778073 10.683511,85.25522 10.004311,82.465112 10.00527,79.315476 c 0.0014,-4.737068 1.649457,-8.892912 4.894375,-12.34228 6.433112,-6.838438 16.65177,-7.693011 24.184525,-2.022519 1.688906,1.271371 3.036449,2.746949 4.395099,4.81269 1.222855,1.859274 1.882466,2.416303 3.194482,2.69768 0.496547,0.10649 6.558118,0.158001 18.592925,0.158001 h 17.856193 l 0.774646,0.706845 c 1.851147,1.689128 5.552851,5.163994 5.723021,5.372318 0.498897,0.610761 0.285561,0.909594 -2.516976,3.525665 -1.486643,1.387731 -3.068831,2.845279 -3.515971,3.238995 l -0.812982,0.715846 -2.732324,-0.0462 -2.732325,-0.0462 -1.973431,-1.951825 c -1.085387,-1.073503 -2.091201,-1.992384 -2.23514,-2.041957 -0.5121,-0.176364 -1.102299,0.24178 -3.024441,2.142759 l -1.946864,1.925427 h -1.984667 -1.984666 l -2.057469,-2.03869 c -2.726345,-2.701462 -2.449058,-2.699445 -5.116372,-0.0372 l -2.005301,2.001489 -4.350922,0.0744 c -4.685753,0.08013 -4.870233,0.109627 -5.849201,0.935204 -0.251137,0.211787 -0.715042,0.807872 -1.030901,1.324634 -3.333781,5.45424 -8.716288,8.673643 -14.980523,8.960205 -0.845855,0.03869 -2.028517,0.009 -2.62814,-0.06601 z M 25.000226,84.307003 c 2.365848,-1.157503 3.628168,-3.830616 2.988331,-6.328149 -0.727875,-2.841174 -3.318291,-4.556778 -6.274597,-4.155599 -1.739014,0.23599 -3.396628,1.509216 -4.202047,3.227627 -0.34489,0.735846 -0.398803,1.04206 -0.398706,2.264594 1.26e-4,1.598713 0.26561,2.378201 1.197194,3.515076 0.647138,0.789747 1.210511,1.196594 2.283715,1.649214 0.712428,0.300465 1.031526,0.344917 2.182074,0.303978 1.122958,-0.03996 1.493726,-0.119434 2.224036,-0.476741 z"
     id="path899" /><path
     style="fill:#ffffff;stroke:#c6bfb9;stroke-width:0.210448"
     d="M 54.476052,34.870754 C 50.663287,33.988903 47.335373,31.967519 45.129607,29.193694 39.926082,22.65009 40.242867,13.783099 45.894198,7.7923904 50.910119,2.4752496 58.687369,1.112736 65.058815,4.4348986 c 3.990392,2.0806485 6.651496,5.1985657 8.179889,9.5840804 0.542369,1.556257 0.586387,1.922333 0.582005,4.840314 -0.0043,2.86369 -0.05737,3.313013 -0.571685,4.840314 -0.939492,2.789894 -2.086636,4.618628 -4.228225,6.740477 -1.588658,1.574015 -2.260995,2.070787 -3.9171,2.894247 -1.099593,0.546747 -2.567471,1.143846 -3.261951,1.326888 -1.758198,0.463399 -5.774146,0.577643 -7.365696,0.209535 z"
     id="path3823" /><path
     style="fill:#ffffff;stroke:#c6bfb9;stroke-width:0.210448"
     d="M 85.096301,65.829141 C 84.707395,65.644969 79.951868,65.563797 66.862246,65.517896 l -17.707934,-0.06209 -1.193248,-1.557891 c -2.772139,-3.619273 -6.766603,-6.548666 -11.0851,-8.129404 -1.950652,-0.714015 -4.966189,-1.437062 -6.02275,-1.444097 -0.406371,-0.0027 -0.68252,-0.111319 -0.680417,-0.267615 0.0019,-0.144684 0.312053,-1.020675 0.689123,-1.946648 2.411763,-5.922575 7.621856,-10.132806 13.919543,-11.248264 2.038066,-0.360985 24.321655,-0.294452 26.270576,0.07844 5.527776,1.057639 10.475623,4.815732 13.043576,9.907135 0.291896,0.578733 0.796501,1.857207 1.121345,2.841054 0.57186,1.73198 0.593288,1.957635 0.674458,7.102635 0.04611,2.922603 0.0044,5.307821 -0.09258,5.300483 -0.09703,-0.0073 -0.413167,-0.125457 -0.702534,-0.262488 z"
     id="path3825" /><path
     style="fill:#ffffff;stroke:#c6bfb9;stroke-width:0.210448"
     d="M 25.762588,97.233043 C 22.680129,96.83414 19.283866,95.376187 16.791802,93.382047 9.8175979,87.801318 7.9678412,78.184257 12.379605,70.442616 c 5.040337,-8.844642 16.14179,-11.793873 24.975117,-6.634932 2.001344,1.168849 4.567489,3.656423 6.013005,5.828899 0.710188,1.067346 1.509332,1.986578 2.022079,2.32594 l 0.847811,0.561124 18.454325,0.05705 18.454325,0.05705 3.26652,3.044674 c 1.796583,1.674572 3.323804,3.193959 3.39382,3.376417 0.152059,0.396266 -0.627002,1.233753 -4.289409,4.611082 l -2.630605,2.425841 -2.739987,8.42e-4 -2.739986,9.61e-4 -1.990947,-1.99926 c -2.616316,-2.62724 -2.576506,-2.62724 -5.250594,0 l -2.034913,1.99926 h -1.974225 -1.974225 l -2.034912,-1.99926 c -1.585788,-1.558006 -2.164042,-1.99926 -2.619989,-1.99926 -0.455947,0 -1.0342,0.441254 -2.619988,1.99926 l -2.034913,1.99926 h -3.8402 c -5.534432,0 -5.876848,0.132842 -7.758948,3.01012 -2.182167,3.336008 -5.690351,6.04643 -9.420661,7.278404 -2.96086,0.977853 -5.236722,1.216129 -8.089517,0.846948 z m -1.43859,-12.618209 c 2.133986,-0.592661 3.825185,-2.950626 3.812955,-5.316239 -0.0081,-1.559714 -0.390229,-2.533658 -1.457903,-3.715445 -2.211408,-2.447764 -5.871367,-2.489769 -8.080868,-0.09274 -1.146823,1.244157 -1.503035,2.148506 -1.503035,3.815905 0,3.811026 3.4633,6.354311 7.228851,5.308523 z"
     id="path3827" /></svg>
