<?xml version="1.0" encoding="UTF-8" standalone="no"?>
<svg
   xmlns:dc="http://purl.org/dc/elements/1.1/"
   xmlns:cc="http://creativecommons.org/ns#"
   xmlns:rdf="http://www.w3.org/1999/02/22-rdf-syntax-ns#"
   xmlns:svg="http://www.w3.org/2000/svg"
   xmlns="http://www.w3.org/2000/svg"
   xmlns:sodipodi="http://sodipodi.sourceforge.net/DTD/sodipodi-0.dtd"
   xmlns:inkscape="http://www.inkscape.org/namespaces/inkscape"
   data-name="Layer 1"
   viewBox="0 0 32 40"
   x="0px"
   y="0px"
   version="1.1"
   id="svg1530"
   sodipodi:docname="noun_Home_3367736.svg"
   inkscape:version="1.0.2-2 (e86c870879, 2021-01-15)">
  <metadata
     id="metadata1536">
    <rdf:RDF>
      <cc:Work
         rdf:about="">
        <dc:format>image/svg+xml</dc:format>
        <dc:type
           rdf:resource="http://purl.org/dc/dcmitype/StillImage" />
      </cc:Work>
    </rdf:RDF>
  </metadata>
  <defs
     id="defs1534" />
  <sodipodi:namedview
     pagecolor="#ffffff"
     bordercolor="#666666"
     borderopacity="1"
     objecttolerance="10"
     gridtolerance="10"
     guidetolerance="10"
     inkscape:pageopacity="0"
     inkscape:pageshadow="2"
     inkscape:window-width="1920"
     inkscape:window-height="1017"
     id="namedview1532"
     showgrid="false"
     inkscape:zoom="21.25"
     inkscape:cx="16"
     inkscape:cy="25.647059"
     inkscape:window-x="-8"
     inkscape:window-y="-8"
     inkscape:window-maximized="1"
     inkscape:current-layer="svg1530"
     inkscape:document-rotation="0" />
  <title
     id="title1522">expand-black-media</title>
  <path
     d="M26.74,14.83l-10-10a1,1,0,0,0-1.4,0l-10,10A1,1,0,0,0,6,16.51H7.22v10a1,1,0,0,0,1,1h5.6V20.8a1,1,0,0,1,1-1h2.42a1,1,0,0,1,1,1v6.7h5.6a1,1,0,0,0,1-1v-10h1.27A1,1,0,0,0,26.74,14.83Z"
     id="path1524" />
  <path
     style="fill:#7c87a6;stroke:#c6bfb9;stroke-width:0.0470588;fill-opacity:1"
     d="M 7.9058824,27.424869 C 7.673072,27.342327 7.5135112,27.20621 7.3766521,26.973395 L 7.2470588,26.752941 7.2342851,21.611765 7.2215114,16.470588 H 6.5240397 c -0.6393257,0 -0.7147623,-0.0091 -0.9048734,-0.109495 -0.4230152,-0.223326 -0.6179548,-0.73262 -0.4492529,-1.173707 0.061708,-0.161343 1.0567526,-1.178688 5.2413626,-5.3588316 4.224321,-4.219811 5.198411,-5.1701865 5.347546,-5.217355 0.2065,-0.065312 0.531301,-0.035186 0.724342,0.067185 0.07073,0.037509 2.439233,2.383158 5.263339,5.2125537 4.799471,4.8084609 5.13858,5.1587729 5.193585,5.3651499 0.115934,0.434982 -0.123941,0.937929 -0.536759,1.125427 -0.158202,0.07185 -0.312448,0.08719 -0.885682,0.08804 l -0.694118,0.001 -0.001,5.094118 c -10e-4,5.020031 -0.0024,5.097185 -0.09671,5.305036 -0.129142,0.284706 -0.213804,0.371211 -0.490497,0.501174 l -0.235294,0.110517 -2.858823,4.71e-4 -2.858824,4.71e-4 v -3.338861 c 0,-2.193162 -0.01727,-3.419398 -0.05034,-3.573568 -0.03468,-0.161713 -0.109046,-0.301406 -0.239113,-0.44917 -0.301541,-0.342568 -0.429956,-0.36406 -2.072812,-0.346912 -1.307083,0.01364 -1.388721,0.01967 -1.567151,0.115696 -0.236268,0.127152 -0.375142,0.274769 -0.468342,0.497828 -0.0635,0.151953 -0.07283,0.617809 -0.07283,3.63463 V 27.48232 L 10.92944,27.47862 C 9.0221293,27.47612 7.9993296,27.45798 7.9059104,27.42485 Z"
     id="path2099" />
  <path
     style="fill:#ffffff;stroke:#c6bfb9;stroke-width:0.0470588"
     d="M 7.9145872,27.434501 C 7.6947143,27.368504 7.4642078,27.160438 7.3404905,26.916293 L 7.2235294,26.685482 V 21.578035 16.470588 H 6.5250487 c -0.6403819,0 -0.7157323,-0.0091 -0.9058824,-0.109495 -0.4060705,-0.21438 -0.6057887,-0.703915 -0.4666593,-1.143842 0.046974,-0.148531 1.0010682,-1.127293 5.193695,-5.3279727 3.547315,-3.5541282 5.194381,-5.1733141 5.324386,-5.2342607 0.215308,-0.1009363 0.390214,-0.1113598 0.658824,-0.039262 0.163126,0.043785 0.871164,0.7326693 5.308033,5.1644432 2.815889,2.8126562 5.159404,5.1774492 5.207813,5.2550962 0.204197,0.327529 0.162226,0.75867 -0.105468,1.083429 -0.245586,0.297937 -0.425712,0.349646 -1.222143,0.350832 l -0.694118,10e-4 -0.001,5.094118 c -10e-4,5.020032 -0.0024,5.097185 -0.09671,5.305036 -0.129142,0.284707 -0.213804,0.371212 -0.490497,0.501174 l -0.235294,0.110518 -2.858823,4.7e-4 -2.858824,4.71e-4 -0.0041,-3.141177 c -0.0023,-1.727647 -0.01036,-3.290666 -0.01799,-3.473375 -0.02057,-0.492385 -0.19105,-0.779105 -0.589657,-0.99173 -0.150773,-0.08043 -0.290099,-0.08786 -1.647059,-0.08786 h -1.482353 l -0.224583,0.132014 c -0.123521,0.07261 -0.282344,0.219284 -0.352941,0.32595 l -0.128358,0.193937 -0.01264,3.521109 -0.01264,3.521108 -2.881476,-0.004 c -1.5848127,-0.0022 -2.9410894,-0.02194 -3.0139488,-0.04381 z"
     id="path2677" />
</svg>
