<?xml version="1.0" encoding="UTF-8" standalone="no"?>
<svg
   xmlns:dc="http://purl.org/dc/elements/1.1/"
   xmlns:cc="http://creativecommons.org/ns#"
   xmlns:rdf="http://www.w3.org/1999/02/22-rdf-syntax-ns#"
   xmlns:svg="http://www.w3.org/2000/svg"
   xmlns="http://www.w3.org/2000/svg"
   xmlns:sodipodi="http://sodipodi.sourceforge.net/DTD/sodipodi-0.dtd"
   xmlns:inkscape="http://www.inkscape.org/namespaces/inkscape"
   version="1.1"
   x="0px"
   y="0px"
   viewBox="0 0 100 125"
   enable-background="new 0 0 100 100"
   xml:space="preserve"
   id="svg875"
   sodipodi:docname="noun_logout_1229802.svg"
   inkscape:version="1.0.2-2 (e86c870879, 2021-01-15)"><metadata
     id="metadata881"><rdf:RDF><cc:Work
         rdf:about=""><dc:format>image/svg+xml</dc:format><dc:type
           rdf:resource="http://purl.org/dc/dcmitype/StillImage" /></cc:Work></rdf:RDF></metadata><defs
     id="defs879" /><sodipodi:namedview
     pagecolor="#ffffff"
     bordercolor="#666666"
     borderopacity="1"
     objecttolerance="10"
     gridtolerance="10"
     guidetolerance="10"
     inkscape:pageopacity="0"
     inkscape:pageshadow="2"
     inkscape:window-width="1920"
     inkscape:window-height="1017"
     id="namedview877"
     showgrid="false"
     inkscape:zoom="6.8"
     inkscape:cx="50"
     inkscape:cy="62.5"
     inkscape:window-x="-8"
     inkscape:window-y="-8"
     inkscape:window-maximized="1"
     inkscape:current-layer="svg875" /><path
     d="M22.748,16.25h28.191v-7.5H21.99c-3.717,0-6.742,3.028-6.742,6.75v69c0,3.722,3.025,6.75,6.742,6.75h28.949v-7.5H22.748  V16.25z M64.951,30.201l-5.303,5.304L70.395,46.25H35.623v7.5h34.771L59.648,64.496l5.303,5.304L84.752,50L64.951,30.201z"
     id="path869" /><path
     style="fill:#ffffff;stroke:#c6bfb9;stroke-width:0.147059"
     d="m 20.406551,90.949766 c -2.28475,-0.615312 -3.979703,-2.208063 -4.734687,-4.449198 l -0.306567,-0.910033 0.03794,-35.846738 0.03794,-35.846738 0.348277,-0.83771 c 0.6973,-1.677216 2.170678,-3.1009158 3.954781,-3.8214354 L 20.588236,8.8970588 35.69853,8.8569548 50.808825,8.8168508 V 12.49666 16.17647 H 36.764706 22.720588 V 50 83.823529 H 36.764706 50.808824 V 87.5 91.176471 l -14.816177,-0.0097 c -12.264651,-0.008 -14.948766,-0.04539 -15.586096,-0.217028 z"
     id="path1444" /><path
     style="fill:#ffffff;stroke:#c6bfb9;stroke-width:0.147059"
     d="m 62.315746,67.022693 -2.536131,-2.536131 5.403564,-5.405046 5.403565,-5.405045 H 53.124254 35.661765 V 50 46.323529 h 17.462489 17.46249 l -5.404087,-5.405567 -5.404086,-5.405568 2.574669,-2.571516 2.57467,-2.571516 9.815181,9.81518 9.81518,9.815182 -9.778721,9.77955 c -5.378296,5.378752 -9.812235,9.77955 -9.853197,9.77955 -0.04096,0 -1.215737,-1.141259 -2.610607,-2.536131 z"
     id="path1446" /></svg>
